<?xml version="1.0" standalone="no"?>
<!DOCTYPE svg PUBLIC "-//W3C//DTD SVG 20010904//EN"
 "http://www.w3.org/TR/2001/REC-SVG-20010904/DTD/svg10.dtd">
<svg version="1.0" xmlns="http://www.w3.org/2000/svg"
 width="200.000000pt" height="200.000000pt" viewBox="0 0 200.000000 200.000000"
 preserveAspectRatio="xMidYMid meet">
<metadata>
Created by potrace 1.14, written by Peter Selinger 2001-2017
</metadata>
<g transform="translate(0.000000,200.000000) scale(0.100000,-0.100000)"
fill="#000000" stroke="none">
<path d="M870 1993 c-429 -63 -763 -377 -849 -798 -109 -526 229 -1045 761
-1172 102 -24 335 -24 438 1 246 58 478 218 614 425 289 439 188 1030 -228
1345 -182 137 -383 204 -611 203 -55 0 -111 -2 -125 -4z m275 -158 c183 -33
328 -108 455 -237 125 -125 204 -277 237 -453 10 -53 9 -237 -1 -299 -19 -116
-90 -275 -164 -366 -168 -207 -387 -318 -642 -326 -186 -5 -344 38 -492 135
-455 297 -518 934 -131 1316 196 193 471 279 738 230z"/>
<path d="M396 1509 l-26 -20 0 -429 c0 -406 1 -429 19 -451 l19 -24 592 0 592
0 19 24 c18 22 19 45 19 451 l0 429 -26 20 c-26 21 -35 21 -604 21 -569 0
-578 0 -604 -21z m1074 -153 c3 -8 5 -149 4 -313 l-1 -298 -473 0 -474 0 0
303 c-1 167 1 308 4 313 8 11 140 14 570 12 318 -1 365 -3 370 -17z"/>
<path d="M829 1288 c-1 -2 -2 -73 -3 -158 -1 -86 -5 -161 -10 -168 -10 -16
-65 -15 -72 2 -3 7 -6 36 -7 62 l-2 49 -65 0 -65 0 -3 -80 c-2 -92 8 -120 56
-148 44 -26 161 -30 227 -8 79 26 86 47 83 266 l-3 180 -67 3 c-38 2 -69 2
-69 0z"/>
<path d="M1057 1284 c-12 -12 -8 -102 5 -110 7 -5 43 -7 80 -7 l68 1 -22 -28
c-13 -15 -51 -62 -86 -105 l-63 -77 3 -62 3 -61 175 0 175 0 3 56 c3 66 3 66
-100 64 -38 -1 -68 -1 -68 1 0 1 36 46 80 100 l81 99 -3 65 -3 65 -161 3 c-88
1 -163 -1 -167 -4z"/>
<path d="M772 499 c-32 -12 -39 -56 -15 -81 19 -19 33 -20 243 -20 196 0 224
2 241 18 24 22 24 49 0 73 -16 16 -37 18 -233 18 -118 0 -224 -4 -236 -8z"/>
</g>
</svg>
